<svg width="40" height="40" viewBox="0 0 40 40" fill="none" xmlns="http://www.w3.org/2000/svg">
<g clip-path="url(#clip0_671_952)">
<path d="M40 0H0V40H40V0Z" fill="url(#paint0_linear_671_952)"/>
<path d="M19.5 12.8C18.8434 12.8 18.2811 12.565 17.8134 12.095C17.5879 11.8745 17.4096 11.6107 17.289 11.3193C17.1684 11.028 17.1081 10.7153 17.1117 10.4C17.1117 9.74 17.345 9.175 17.8117 8.705C18.2817 8.235 18.8445 8 19.5 8C20.1556 8 20.7178 8.235 21.1867 8.705C21.6545 9.175 21.8884 9.74 21.8884 10.4C21.8884 11.06 21.655 11.625 21.1884 12.095C20.7195 12.565 20.1567 12.8 19.5 12.8ZM15.9167 30.8V16.4C14.9282 16.3184 13.9422 16.2084 12.96 16.07C11.9773 15.9316 11.0008 15.7514 10.0334 15.53C9.6966 15.4522 9.40252 15.2482 9.21169 14.96C9.11143 14.8238 9.04444 14.6661 9.01608 14.4994C8.98772 14.3327 8.99877 14.1617 9.04836 14C9.09236 13.8371 9.17118 13.6857 9.27937 13.5562C9.38756 13.4267 9.52255 13.3223 9.67502 13.25C9.98936 13.092 10.3492 13.0495 10.6917 13.13C12.085 13.43 13.5328 13.65 15.035 13.79C16.5384 13.93 18.0267 14 19.5 14C20.9734 14 22.4617 13.93 23.965 13.79C25.4672 13.65 26.9156 13.43 28.31 13.13C28.652 13.0499 29.0112 13.0924 29.325 13.25C29.4775 13.3223 29.6125 13.4267 29.7207 13.5562C29.8289 13.6857 29.9077 13.8371 29.9517 14C30.0013 14.1617 30.0123 14.3327 29.984 14.4994C29.9556 14.6661 29.8886 14.8238 29.7884 14.96C29.5975 15.2482 29.3034 15.4522 28.9667 15.53C27.9992 15.7514 27.0228 15.9316 26.04 16.07C25.0445 16.21 24.0589 16.32 23.0834 16.4V30.8C23.0872 30.9584 23.0587 31.1158 22.9997 31.2628C22.9406 31.4098 22.8523 31.5433 22.74 31.655C22.629 31.767 22.4965 31.8553 22.3504 31.9145C22.2043 31.9738 22.0477 32.0029 21.89 32C21.7321 32.0031 21.5752 31.9742 21.4288 31.9149C21.2824 31.8556 21.1496 31.7672 21.0384 31.655C20.9261 31.5433 20.8377 31.4098 20.7787 31.2628C20.7197 31.1158 20.6912 30.9584 20.695 30.8V24.8H18.305V30.8C18.3088 30.9584 18.2804 31.1158 18.2213 31.2628C18.1623 31.4098 18.074 31.5433 17.9617 31.655C17.8507 31.767 17.7181 31.8553 17.572 31.9145C17.4259 31.9738 17.2693 32.0029 17.1117 32C16.9538 32.0031 16.7969 31.9742 16.6505 31.9149C16.5041 31.8556 16.3712 31.7672 16.26 31.655C16.1478 31.5433 16.0594 31.4098 16.0004 31.2628C15.9414 31.1158 15.9129 30.9584 15.9167 30.8Z" fill="white"/>
</g>
<defs>
<linearGradient id="paint0_linear_671_952" x1="42" y1="-1.01328e-07" x2="-9.5" y2="43" gradientUnits="userSpaceOnUse">
<stop stop-color="#3690FA"/>
<stop offset="1" stop-color="#2266D2"/>
</linearGradient>
<clipPath id="clip0_671_952">
<rect width="40" height="40" fill="white"/>
</clipPath>
</defs>
</svg>
