<svg xmlns="http://www.w3.org/2000/svg" width="24" height="24" fill="none">
    <path fill="url(#a)" d="M24 0H0v24h24z"/>
    <path fill="#fff" d="M11.7 7.68q-.591 0-1.012-.423a1.4 1.4 0 0 1-.421-1.017q0-.594.42-1.017Q11.11 4.8 11.7 4.8t1.012.423q.421.423.421 1.017t-.42 1.017q-.422.423-1.013.423m-2.15 10.8V9.84a31 31 0 0 1-1.774-.198 21 21 0 0 1-1.756-.324.81.81 0 0 1-.493-.342.65.65 0 0 1-.098-.576.7.7 0 0 1 .376-.45.9.9 0 0 1 .61-.072q1.254.27 2.606.396 1.353.126 2.679.126t2.679-.126q1.352-.126 2.607-.396a.9.9 0 0 1 .609.072.7.7 0 0 1 .376.45.65.65 0 0 1-.098.576.81.81 0 0 1-.493.342 21 21 0 0 1-1.756.324q-.896.126-1.774.198v8.64a.7.7 0 0 1-.206.513.7.7 0 0 1-.51.207.7.7 0 0 1-.511-.207.7.7 0 0 1-.206-.513v-3.6h-1.434v3.6a.7.7 0 0 1-.206.513.7.7 0 0 1-.51.207.7.7 0 0 1-.511-.207.7.7 0 0 1-.206-.513"/>
    <defs>
        <linearGradient id="a" x1="25.2" x2="-5.7" y1="0" y2="25.8" gradientUnits="userSpaceOnUse">
            <stop stop-color="#3690FA"/>
            <stop offset="1" stop-color="#2266D2"/>
        </linearGradient>
    </defs>
</svg>